# AST/ASF file generated using VICON BodyLanguage
# -----------------------------------------------
:version 1.10
:name VICON
:units
  mass 1.0
  length 0.45
  angle deg
:documentation
   .ast/.asf automatically generated from VICON data using
   VICON BodyBuilder and BodyLanguage model FoxedUp or BRILLIANT.MOD
:root
   order TX TY TZ RX RY RZ
   axis XYZ
   position 0 0 0  
   orientation 0 0 0 
:bonedata
  begin
     id 1 
     name lhipjoint
     direction 0.558404 -0.748506 0.357664 
     length 2.4234 
     axis 0 0 0  XYZ
  end
  begin
     id 2 
     name lfemur
     direction 0.34202 -0.939693 0  
     length 7.14567  
     axis 0 0 20  XYZ
    dof rx ry rz
    limits (-160.0 20.0)
           (-70.0 70.0)
           (-60.0 70.0)
  end
  begin
     id 3 
     name ltibia
     direction 0.34202 -0.939693 0   
     length 8.13956   
     axis 0 0 20   XYZ
    dof rx
    limits (-10.0 170.0)
  end
  begin
     id 4 
     name lfoot
     direction 0.0791314 -0.217412 0.972867   
     length 2.00134   
     axis -90 7.62852e-016 20   XYZ
    dof rx rz
    limits (-45.0 90.0)
           (-70.0 20.0)
  end
  begin
     id 5 
     name ltoes
     direction 1.53547e-011 -4.21922e-011 1   
     length 1.00735   
     axis -90 7.62852e-016 20   XYZ
    dof rx
    limits (-90.0 20.0)
  end
  begin
     id 6 
     name rhipjoint
     direction -0.496392 -0.78327 0.374276   
     length 2.31584  
     axis 0 0 0  XYZ 
  end
  begin
     id 7 
     name rfemur
     direction -0.34202 -0.939693 0   
     length 7.47417   
     axis 0 0 -20   XYZ
    dof rx ry rz
    limits (-160.0 20.0)
           (-70.0 70.0)
           (-70.0 60.0)
  end
  begin
     id 8 
     name rtibia
     direction -0.34202 -0.939693 0   
     length 7.69071   
     axis 0 0 -20   XYZ
    dof rx
    limits (-10.0 170.0)
 end
 begin
     id 9 
     name rfoot
     direction -0.103069 -0.28318 0.953512   
     length 2.16135  
     axis -90 -7.62852e-016 -20   XYZ
    dof rx rz
    limits (-45.0 90.0)
           (-20.0 70.0)
  end
  begin
     id 10 
     name rtoes
     direction -1.53581e-011 -4.21904e-011 1   
     length 1.07867   
     axis -90 -7.62852e-016 -20   XYZ
    dof rx
    limits (-90.0 20.0)
  end
  begin
     id 11 
     name lowerback
     direction -0.0258961 0.994776 -0.0987407   
     length 2.19412   
     axis 0 0 0   XYZ
    dof rx ry rz
    limits (-20.0 45.0)
           (-30.0 30.0)
           (-30.0 30.0)
  end
  begin
     id 12 
     name upperback
     direction 0.0402454 0.999185 0.00320666   
     length 2.18445   
     axis 0 0 0   XYZ
    dof rx ry rz
    limits (-20.0 45.0)
           (-30.0 30.0)
           (-30.0 30.0)
  end
  begin
     id 13 
     name thorax
     direction 0.0519376 0.997415 0.0496558   
     length 2.21487   
     axis 0 0 0   XYZ
    dof rx ry rz
    limits (-20.0 45.0)
           (-30.0 30.0)
           (-30.0 30.0)
  end
  begin
     id 14 
     name lowerneck
     direction -0.0921276 0.983211 0.157506   
     length 1.61201   
     axis 0 0 0   XYZ
    dof rx ry rz
    limits (-20.0 45.0)
           (-30.0 30.0)
           (-30.0 30.0)
  end
  begin
     id 15 
     name upperneck
     direction 0.0820814 0.98162 -0.172292   
     length 1.65275   
     axis 0 0 0   XYZ
    dof rx ry rz
    limits (-20.0 45.0)
           (-30.0 30.0)
           (-30.0 30.0)
  end
  begin
     id 16
     name head
     direction 0.0336554 0.996413 -0.0776455  
     length 1.66415  
     axis 0 0 0   XYZ
    dof rx ry rz
    limits (-20.0 45.0)
           (-30.0 30.0)
           (-30.0 30.0)
  end
  begin
     id 17 
     name lclavicle
     direction 0.94696 0.284418 -0.149576  
     length 3.41447  
     axis 0 0 0   XYZ
    dof ry rz
    limits (-20.0 10.0)
           (0.0 20.0)
  end
  begin
     id 18 
     name lhumerus
     direction 1 -0.000130264 -9.81312e-005   
     length 5.19964   
     axis 180 -30 -90   XYZ
    dof rx ry rz
    limits (-60.0 90.0)
           (-90.0 90.0)
           (-90.0 90.0)
  end
  begin
     id 19
     name lradius
     direction 1 -4.48961e-011 1.43854e-026   
     length 3.32189   
     axis 180 -30 -90   XYZ
    dof rx
    limits (-10.0 170.0)
  end
  begin
     id 20
     name lwrist
     direction 1 -4.48958e-011 3.1502e-026   
     length 1.66095   
     axis -1.97692e-014 90 90   XYZ
    dof ry
    limits (-180.0 0.0)
 end
  begin
     id 21 
     name lhand
     direction 1 -4.48927e-011 6.3004e-026   
     length 0.645616   
     axis -4.02019e-014 90 90   XYZ
    dof rx rz
    limits (-90.0 90.0)
           (-45.0 45.0)
  end
  begin
     id 22 
     name lfingers
     direction 1 -4.4904e-011 1.26008e-025   
     length 0.520512   
     axis -8.04039e-014 90 90   XYZ
    dof rx
    limits (0.0 90.0)
  end
  begin
     id 23
     name lthumb
     direction 0.707107 -6.34947e-011 0.707107   
     length 0.747354   
     axis -90 45 2.85299e-015   XYZ
    dof rx rz
    limits (-45.0 45.0)
           (-45.0 45.0)
  end
  begin
     id 24 
     name rclavicle
     direction -0.909391 0.383475 -0.161107   
     length 3.25176  
     axis 0 0 0   XYZ 
    dof ry rz
    limits (-10.0 20.0)
           (-20.0 0.0)
  end
  begin
     id 25 
     name rhumerus
     direction -1 -4.48965e-011 -1.81384e-027  
     length 5.6595   
     axis 180 30 90   XYZ
    dof rx ry rz
    limits (-90.0 60.0)
           (-90.0 90.0)
           (-90.0 90.0)
  end
  begin
     id 26 
     name rradius
     direction -1 -4.48996e-011 -8.09397e-027   
     length 3.37604   
     axis 180 30 90   XYZ
    dof rx
    limits (-10.0 170.0)
  end
  begin
     id 27 
     name rwrist
     direction -1 -4.48927e-011 -1.56669e-026   
     length 1.68802   
     axis 1.21142e-014 -90 -90   XYZ
    dof ry
    limits (-180.0 0.0)
  end
  begin
     id 28
     name rhand
     direction -1 -4.48912e-011 -3.13339e-026   
     length 0.824702   
     axis 1.99937e-014 -90 -90   XYZ
    dof rx rz
    limits (-90.0 90.0)
           (-45.0 45.0)
  end
  begin
     id 29
     name rfingers
     direction -1 -4.49011e-011 -6.26677e-026   
     length 0.664896   
     axis 3.99874e-014 -90 -90   XYZ
    dof rx
    limits (0.0 90.0)
  end
  begin
     id 30
     name rthumb
     direction -0.707107 -6.34931e-011 0.707107   
     length 0.954662   
     axis -90 -45 -2.85299e-015   XYZ
    dof rx rz
    limits (-45.0 45.0)
           (-45.0 45.0)
  end
:hierarchy
  begin
    root lhipjoint rhipjoint lowerback
    lhipjoint lfemur
    lfemur ltibia
    ltibia lfoot
    lfoot ltoes
    rhipjoint rfemur
    rfemur rtibia
    rtibia rfoot
    rfoot rtoes
    lowerback upperback
    upperback thorax
    thorax lowerneck lclavicle rclavicle
    lowerneck upperneck
    upperneck head
    lclavicle lhumerus
    lhumerus lradius
    lradius lwrist
    lwrist lhand lthumb
    lhand lfingers
    rclavicle rhumerus
    rhumerus rradius
    rradius rwrist
    rwrist rhand rthumb
    rhand rfingers
  end

#!OML:ASF F:\VICON\USERDATA\INSTALL\rory3\rory3.ASF
:FULLY-SPECIFIED
:DEGREES
425
root 6.18586 16.7475 5.46093 -2.5581 48.6531 -6.23242
lowerback 5.57131 -9.59992 1.43878
upperback -3.56868 -11.9579 11.818
thorax -4.56901 -5.78497 12.9406
lowerneck -1.99443 -12.1294 -13.5855
upperneck 7.9401 -16.9521 14.1809
head 5.09021 -8.22551 5.40195
rclavicle 3.91606e-014 -2.8625e-014
rhumerus -36.7015 -32.1904 -41.4573
rradius 30.1652
rwrist -19.7
rhand -20.4139 13.272
rfingers 7.12502
rthumb 5.94027 -16.6247
lclavicle 3.91606e-014 -2.8625e-014
lhumerus 22.2931 -52.8108 94.116
lradius 30.4539
lwrist -12.9863
lhand -4.10014 36.9047
lfingers 7.12502
lthumb 21.6578 65.7134
rfemur -38.5054 1.29649 25.4684
rtibia 45.9841
rfoot -6.44775 -5.72361
rtoes 31.0732
lfemur -8.00794 14.7397 -31.2938
ltibia 49.4818
lfoot -5.35157 -23.7432
ltoes -19.6817
426
root 6.20419 16.7759 5.45047 -3.01736 49.2545 -6.45757
lowerback 5.65481 -9.36669 1.42863
upperback -3.15912 -11.6822 11.5991
thorax -4.27755 -5.66782 12.6437
lowerneck -2.04735 -12.4603 -13.6603
upperneck 7.24359 -17.372 14.658
head 4.99888 -8.42359 5.51616
rclavicle -1.57835e-013 -1.90833e-014
rhumerus -35.3199 -32.5943 -41.8503
rradius 30.7075
rwrist -20.0352
rhand -20.7644 12.6821
rfingers 7.12502
rthumb 5.60186 -17.2239
lclavicle -1.57835e-013 -1.90833e-014
lhumerus 20.3327 -46.2155 95.7719
lradius 29.3767
lwrist -15.0158
lhand -5.01223 38.3137
lfingers 7.12502
lthumb 20.7817 67.2208
rfemur -37.8152 0.973231 25.3465
rtibia 45.4568
rfoot -6.42802 -5.80769
rtoes 31.6561
lfemur -8.47654 15.2975 -30.3291
ltibia 51.4674
lfoot -7.58977 -22.4822
ltoes -16.8408
427
root 6.22335 16.7927 5.42049 -3.81084 50.0536 -7.15876
lowerback 6.02153 -9.18859 2.01566
upperback -3.10804 -11.3558 11.3859
thorax -4.65529 -5.49692 12.1437
lowerneck -1.45011 -12.7354 -13.9617
upperneck 6.63305 -17.7926 15.2162
head 4.8563 -8.65388 5.72887
rclavicle 9.56154e-014 -3.18055e-014
rhumerus -34.7041 -32.4781 -41.8276
rradius 31.5966
rwrist -20.5013
rhand -20.9816 12.2973
rfingers 7.12502
rthumb 5.39208 -17.6141
lclavicle 9.56154e-014 -3.18055e-014
lhumerus 18.3854 -39.852 97.263
lradius 28.7189
lwrist -16.0601
lhand -6.58722 39.4774
lfingers 7.12502
lthumb 19.2678 68.5429
rfemur -37.278 0.295382 25.5303
rtibia 44.9823
rfoot -6.36459 -5.84174
rtoes 32.4913
lfemur -9.15997 15.1587 -29.2812
ltibia 53.5036
lfoot -10.3526 -20.4394
ltoes -16.3435
428
root 6.22783 16.8204 5.41719 -4.59706 50.6182 -7.7661
lowerback 6.10169 -8.92682 1.75252
upperback -2.84286 -11.0444 11.399
thorax -4.42068 -5.34698 12.2646
lowerneck -0.520817 -12.9122 -14.4761
upperneck 5.69195 -18.0907 15.9932
head 4.58637 -8.8474 6.08371
rclavicle -1.63003e-013 4.45278e-014
rhumerus -33.7437 -32.2332 -41.8671
rradius 32.4965
rwrist -21.0151
rhand -21.0121 12.8139
rfingers 7.12502
rthumb 5.36266 -17.0982
lclavicle -1.63003e-013 4.45278e-014
lhumerus 17.717 -33.4941 97.98
lradius 27.9832
lwrist -16.5487
lhand -8.30808 39.6911
lfingers 7.12502
lthumb 17.6124 68.9134
rfemur -36.6153 0.208332 25.7017
rtibia 44.5599
rfoot -6.42641 -6.24894
rtoes 32.4766
lfemur -9.78762 15.5068 -28.028
ltibia 55.402
lfoot -12.9588 -18.4133
ltoes -19.5635
429
root 6.24882 16.8374 5.37175 -4.5902 51.4486 -7.69343
lowerback 6.16549 -8.7561 1.80282
upperback -2.78349 -10.816 11.1829
thorax -4.48897 -5.23115 11.9864
lowerneck 0.126198 -13.1374 -15.0111
upperneck 5.07663 -18.4584 16.716
head 4.47525 -9.06064 6.39142
rclavicle -6.38099e-014 -2.8625e-014
rhumerus -32.7322 -31.9491 -41.936
rradius 33.2167
rwrist -21.4483
rhand -21.0278 13.3463
rfingers 7.12502
rthumb 5.34755 -16.5662
lclavicle -6.38099e-014 -2.8625e-014
lhumerus 17.6118 -27.4906 98.0563
lradius 26.8338
lwrist -18.2847
lhand -10.3643 35.9378
lfingers 7.12502
lthumb 15.6328 65.3262
rfemur -36.4167 -0.747041 25.3312
rtibia 44.1448
rfoot -6.20514 -6.06988
rtoes 32.2329
lfemur -10.7374 14.8089 -27.7116
ltibia 57.1813
lfoot -14.1947 -16.4872
ltoes -18.4459
